<svg fill="#FFFFFF" viewBox="0 0 27 27" xmlns="http://www.w3.org/2000/svg">
    <path fill-rule="evenodd" d="M22.9 4.6C17.8-.5 9.5-.5 4.3 4.6-.9 9.7-.8 18 4.3 23.2c2.5 2.5 5.8 3.8 9.3 3.8 3.5 0 6.8-1.4 9.3-3.8C28 18 28 9.7 22.9 4.6zM22 22.2c-2.2 2.2-5.2 3.5-8.4 3.5s-6.2-1.2-8.4-3.5C.6 17.6.6 10 5.2 5.4c2.3-2.3 5.4-3.5 8.4-3.5s6.1 1.2 8.4 3.5c4.7 4.7 4.7 12.2 0 16.8zM18.4 9.1c-.2-.2-.6-.2-.9 0l-3.7 3.7-3.7-3.7c-.2-.2-.6-.2-.9 0-.3.2-.2.6 0 .9l3.7 3.7-3.7 3.7c-.2.2-.2.6 0 .9.1.1.3.2.4.2.1 0 .3-.1.4-.2l3.7-3.7 3.7 3.7c.1.1.3.2.4.2.1 0 .3-.1.4-.2.2-.2.2-.6 0-.9l-3.7-3.7 3.7-3.7c.4-.3.4-.6.2-.9z"/>
</svg>